<svg width="6" height="7" viewBox="0 0 6 7" fill="none" xmlns="http://www.w3.org/2000/svg">
<path d="M1.87222 -0.000363983L1.8723 0.374081L7.27966e-05 0.374445L0.00021839 1.12333L0.374663 1.12326L0.37561 5.99104C0.375648 6.18966 0.454586 6.38013 0.595057 6.52055C0.735529 6.66096 0.926027 6.73983 1.12464 6.73979L4.86909 6.73906C5.06771 6.73902 5.25818 6.66008 5.3986 6.51961C5.53901 6.37914 5.61788 6.18864 5.61784 5.99003L5.61689 1.12224L5.99134 1.12217L5.99119 0.37328L4.11897 0.373644L4.11889 -0.000800762L1.87222 -0.000363983ZM1.12355 1.12312L4.868 1.12239L4.86895 5.99017L1.1245 5.9909L1.12355 1.12312ZM1.87259 1.87186L1.87324 5.24186L2.62213 5.24172L2.62148 1.87171L1.87259 1.87186ZM3.37037 1.87157L3.37102 5.24157L4.11991 5.24143L4.11926 1.87142L3.37037 1.87157Z" fill="#E24F4F"/>
</svg>
