<svg width="35" height="51" viewBox="0 0 35 51" fill="none" xmlns="http://www.w3.org/2000/svg">
<path d="M10.1237 21.0843L10.1917 14.2484L24.0637 14.0757L24.4646 21.8485C40.4407 31.3302 32.5289 44.5621 26.576 49.9928L13.0166 50.7901C-8.80362 39.0129 1.99621 26.0791 10.1237 21.0843Z" fill="#D9ECE3" stroke="#D0DDCF" stroke-width="0.298588"/>
<path opacity="0.87" d="M17.4371 8.75029C22.2219 8.79791 26.0931 9.5987 26.0838 10.5386C26.0832 10.5908 26.0692 10.6417 26.0451 10.6925L26.0822 10.6929L26.0514 13.7874L26.0143 13.7871C26.0373 13.8384 26.0504 13.8895 26.0499 13.9417C26.0405 14.8816 22.1541 15.6052 17.3693 15.5576C12.5845 15.5099 8.71327 14.7092 8.72263 13.7693C8.72315 13.717 8.73727 13.6662 8.76127 13.6154L8.72416 13.615L8.75496 10.5204L8.79207 10.5208C8.76907 10.4695 8.75602 10.4184 8.7565 10.3661C8.76585 9.42625 12.6523 8.70267 17.4371 8.75029Z" fill="#D1DED8"/>
<path d="M11.0345 12.4842L9.76812 1.83568C16.6566 -0.840514 22.8158 0.821892 25.0343 1.98762L23.5562 12.6088C18.8633 15.3069 13.253 13.6499 11.0345 12.4842Z" fill="#CC862E"/>
<path d="M11.0345 12.4842L9.76812 1.83568C16.6566 -0.840514 22.8158 0.821892 25.0343 1.98762L23.5562 12.6088C18.8633 15.3069 13.253 13.6499 11.0345 12.4842Z" fill="black" fill-opacity="0.2"/>
<path d="M11.0345 12.4842L9.76812 1.83568C16.6566 -0.840514 22.8158 0.821892 25.0343 1.98762L23.5562 12.6088C18.8633 15.3069 13.253 13.6499 11.0345 12.4842Z" stroke="#D0DDCF" stroke-width="0.298588"/>
<path d="M11.0345 12.4842L9.76812 1.83568C16.6566 -0.840514 22.8158 0.821892 25.0343 1.98762L23.5562 12.6088C18.8633 15.3069 13.253 13.6499 11.0345 12.4842Z" stroke="black" stroke-opacity="0.2" stroke-width="0.298588"/>
<ellipse cx="17.4564" cy="1.80043" rx="7.37617" ry="1.71539" transform="rotate(0.570215 17.4564 1.80043)" fill="#DEA051"/>
</svg>
