<svg width="1280" height="643" viewBox="0 0 1280 643" fill="none" xmlns="http://www.w3.org/2000/svg" xmlns:xlink="http://www.w3.org/1999/xlink">
<path d="M0 0H1280V643H0V0Z" fill="url(#pattern0_564_61641)"/>
<defs>
<pattern id="pattern0_564_61641" patternUnits="userSpaceOnUse" patternTransform="matrix(517.202 0 0 221.088 606.979 291.699)" preserveAspectRatio="none" viewBox="7.00977 4.42311 517.202 221.088" width="1" height="1">
<use xlink:href="#pattern0_564_61641_inner" transform="translate(0 -221.088)"/>
<use xlink:href="#pattern0_564_61641_inner" transform="translate(258.601 -110.544)"/>
<g id="pattern0_564_61641_inner">
<path d="M56.3513 18.1862C56.9328 17.6081 57.5052 17.0325 58.0867 16.4544C59.218 15.3264 60.3492 14.1984 61.4242 13.0069C61.7878 12.605 64.4394 9.67517 64.1579 9.35783C63.0729 10.3654 62.1281 11.6399 61.1508 12.7561C60.3674 13.6436 59.5841 14.5311 58.8007 15.4185C58.4463 15.8179 58.038 16.163 57.6836 16.5624C57.442 16.8334 57.2028 17.1135 56.9753 17.4003C56.7704 17.6615 56.5935 17.9543 56.3604 18.1837L56.3513 18.1862Z" fill="#94B65B"/>
<path d="M48.9678 11.9964C49.0746 11.9187 49.1838 11.8501 49.3047 11.7883C49.3664 11.7619 49.4281 11.7356 49.4947 11.7276C49.5222 11.7202 49.6511 11.7249 49.6669 11.7108C49.4607 11.8938 49.2495 12.0584 49.0292 12.2254C48.3297 12.7664 47.6773 13.3733 47.0996 14.0388C46.5219 14.7042 46.0279 15.4257 45.4269 16.0778C45.4812 16.024 45.4571 15.8242 45.4491 15.7576C45.4331 15.6245 45.4098 15.6111 45.5068 15.4967C45.6465 15.3218 45.7887 15.156 45.9284 14.9811C46.1291 14.7408 46.3316 14.4705 46.558 14.2527C46.8002 14.0208 47.0516 13.7865 47.3031 13.5522C47.5545 13.3179 47.8724 13.0755 48.0908 12.7912C48.3476 12.467 48.6406 12.2412 48.9678 11.9964Z" fill="#9DC762"/>
<path d="M11.9518 56.7056C12.6292 56.0822 13.3182 55.4655 13.9955 54.8421C14.4374 54.4389 14.8926 54.0125 15.0996 53.466C15.2865 52.9544 15.2149 52.3943 14.9822 51.9657C14.7495 51.5371 14.3575 51.2101 13.9369 50.9595C13.7045 50.8254 13.4655 50.7029 13.2265 50.5804C12.8505 50.3866 12.4903 50.1787 12.1186 49.9641C11.9584 49.8794 11.8049 49.7831 11.6448 49.6984C11.2963 49.4972 10.9478 49.296 10.5993 49.0948C10.5296 49.0546 10.4599 49.0144 10.3927 48.9833C10.3578 48.9632 10.3229 48.9431 10.2881 48.9229C10.2184 48.8827 10.2812 48.7873 10.3147 48.7292C10.2975 48.6651 10.2236 48.6456 10.1613 48.6329C10.0989 48.6201 10.0299 48.619 9.96084 48.6179C9.83863 48.6015 9.72736 48.5528 9.61611 48.5041C9.41437 48.4108 9.21268 48.3176 9.0201 48.2219C8.96202 48.1884 8.90638 48.1641 8.855 48.1189C8.75716 48.0469 8.68857 47.9377 8.63162 47.8351C8.59366 47.7667 8.54412 47.6916 8.55867 47.5993C8.57076 47.4979 8.64518 47.4092 8.7435 47.3731C8.48567 47.3636 8.25087 47.2203 8.09117 47.0275C8.00674 46.9323 7.94484 46.8114 7.95873 46.68C7.96232 46.6201 7.9867 46.5645 7.98112 46.5071C7.97244 46.4014 7.89294 46.3245 7.82504 46.2543C7.53198 45.9303 7.41593 45.4606 7.31639 45.016C7.26237 44.8144 7.1424 44.66 7.19161 44.4406C7.24082 44.2212 7.37316 44.0188 7.55507 43.8915C7.13489 43.5328 6.93369 42.9288 7.03618 42.322C7.05318 42.2389 7.0702 42.1558 7.1196 42.0836C7.169 42.0115 7.23916 41.9436 7.31245 41.924C7.32341 41.8916 7.31359 41.8549 7.29036 41.8415C7.26712 41.8281 7.24144 41.8055 7.22491 41.7805C7.18515 41.742 7.16795 41.6779 7.15992 41.6113C7.13046 41.5014 7.11932 41.3866 7.12895 41.276C7.13859 41.1654 7.16903 41.059 7.19945 40.9527C7.23411 40.8256 7.27545 40.6868 7.31011 40.5597C7.35148 40.4209 7.38371 40.2847 7.46909 40.1636C7.56788 40.0193 7.71313 39.9018 7.86887 39.86C7.80144 39.6817 7.75481 39.5077 7.68738 39.3294C7.65366 39.2402 7.61994 39.151 7.60209 39.0478C7.5646 38.8713 7.58455 38.6892 7.59532 38.5096C7.61638 38.2585 7.64411 37.9957 7.78068 37.7725C7.8569 37.6539 7.97716 37.553 8.11032 37.5369C8.14697 37.5271 8.17935 37.5381 8.21354 37.5191C8.24773 37.5001 8.27702 37.4628 8.26966 37.4353C8.24265 37.3345 8.14725 37.2717 8.12024 37.1709C8.06622 36.9694 8.06715 36.7531 8.11636 36.5337C8.16557 36.3143 8.27715 36.1077 8.42845 35.9395C8.50533 35.8599 8.58466 35.7896 8.67316 35.7168C8.72076 35.6745 8.76837 35.6323 8.82513 35.5877C8.64644 35.3606 8.552 35.0815 8.60414 34.7632C8.65628 34.4448 8.82148 34.1452 9.06865 33.9317C9.22732 33.7909 9.42575 33.6887 9.61945 33.7153C9.56118 33.5345 9.54627 33.3323 9.53381 33.1393C9.51446 32.8106 9.56164 32.4739 9.64797 32.1366C9.67168 32.0419 9.70455 31.9447 9.76065 31.8609C9.83262 31.7631 9.94438 31.7036 10.047 31.6467C10.202 31.5658 10.3546 31.4758 10.5005 31.3975C10.6111 30.8572 10.6593 30.3043 10.7698 29.764C10.8141 29.5263 10.8742 29.2745 11.053 29.099C11.2001 28.9515 11.4217 28.8627 11.4899 28.6775C11.5295 28.5687 11.5 28.4587 11.4914 28.3531C11.4796 28.1991 11.5227 28.0304 11.5592 27.8734C11.5914 27.7371 11.626 27.61 11.6582 27.4737C11.7226 27.2011 11.7962 26.9261 11.923 26.6663C12.0211 26.4829 12.1425 26.3129 12.292 26.1746C12.3622 26.1067 12.4348 26.048 12.4726 25.9691C12.5237 25.867 12.5151 25.7613 12.4973 25.6581C12.4794 25.5549 12.4707 25.4492 12.5127 25.3495C12.5548 25.2499 12.6683 25.1606 12.763 25.1843C12.6672 24.827 12.6765 24.4219 12.7988 24.0356C12.8317 23.9384 12.8737 23.8388 12.9531 23.7684C13.0324 23.6981 13.1515 23.6662 13.2236 23.7156C13.2493 23.7381 13.305 23.7625 13.3367 23.7343C13.0649 23.3064 13.0409 22.704 13.2736 22.1802C13.3047 22.1129 13.3382 22.0548 13.3809 21.9943C13.4236 21.9338 13.492 21.8958 13.5586 21.8878C13.5952 21.8779 13.6368 21.8864 13.6759 21.8858C13.715 21.8851 13.7633 21.882 13.795 21.8539C13.8267 21.8257 13.8536 21.7793 13.8346 21.7451C13.7537 21.59 13.7412 21.3969 13.7819 21.2191C13.8227 21.0413 13.969 20.8547 14.1523 20.8056C14.1981 20.7933 14.2531 20.7786 14.2872 20.7596C14.344 20.715 14.3494 20.6252 14.3414 20.5586C14.3235 20.4553 14.2849 20.3479 14.2762 20.2422C14.2675 20.1365 14.2747 20.0167 14.3351 19.9122C14.3954 19.8076 14.5255 19.7433 14.6318 19.7737C14.557 19.5679 14.6147 19.307 14.7329 19.0887C14.8512 18.8705 15.0533 18.7083 15.2798 18.6378C15.344 18.6206 15.3989 18.6058 15.4556 18.5612C15.5216 18.514 15.5478 18.4285 15.5556 18.3478C15.5634 18.2672 15.553 18.1914 15.5516 18.1132C15.5653 17.8346 15.7495 17.5692 15.9319 17.3338C16.0398 17.187 16.1503 17.0494 16.2839 16.9252C16.4175 16.801 16.5793 16.7086 16.7516 16.6919C16.8756 16.6783 16.9911 16.7062 17.1066 16.7342C16.9762 16.504 17.0326 16.1648 17.2357 15.9336C17.3034 15.8566 17.3852 15.7954 17.4768 15.7708C17.5684 15.7463 17.6699 15.7584 17.7329 15.8102C17.7726 15.8487 17.8106 15.9171 17.8747 15.8999C17.9114 15.89 17.9315 15.8552 17.9425 15.8228C17.9534 15.7904 17.9527 15.7513 17.9454 15.7238C17.9401 15.411 18.0772 15.0797 18.317 14.8387C18.3872 14.7708 18.4598 14.712 18.5489 14.6783C18.668 14.6464 18.7786 14.656 18.8825 14.6773C18.9245 14.5776 18.9208 14.4903 18.9304 14.3797C18.9564 14.1469 19.1229 13.9255 19.3329 13.8299C19.5063 13.7442 19.6994 13.7317 19.8857 13.7309C19.9456 13.7345 20.0121 13.7264 20.0611 13.7624C20.0867 13.785 20.1125 13.8075 20.129 13.8326C20.1455 13.8576 20.1804 13.8778 20.217 13.8679C20.2935 13.4939 20.5545 13.149 20.8824 12.9433C21.2102 12.7376 21.6189 12.687 21.9478 12.8149C22.015 12.846 22.0914 12.8746 22.1714 12.8433C22.2489 12.8029 22.2934 12.7124 22.3312 12.6336C22.4159 12.4734 22.5795 12.351 22.7468 12.316C22.8883 12.1111 23.0414 11.913 23.2227 11.7465C23.4039 11.5801 23.6432 11.4473 23.8687 11.4458C24.0825 11.4376 24.2867 11.5399 24.3932 11.7176C24.4287 11.7768 24.4667 11.8452 24.5357 11.8463C24.5864 11.8524 24.6365 11.8193 24.6841 11.7771C24.8544 11.6431 25.0155 11.5115 25.1858 11.3775C25.2651 11.3071 25.3561 11.2435 25.4519 11.1982C25.5478 11.1528 25.6626 11.1417 25.7507 11.177C26.0487 11.1168 26.3562 11.2013 26.555 11.3935C26.7538 11.5857 26.8372 11.8972 26.7686 12.1905C26.885 12.0022 27.0339 11.8248 27.2042 11.6908C27.3745 11.5568 27.5961 11.4679 27.8008 11.4622C27.978 11.4638 28.1265 11.5418 28.2751 11.6198C28.4261 11.707 28.5252 11.8572 28.5536 12.0361C28.5714 12.1394 28.5643 12.2591 28.6163 12.3434C28.6027 12.2194 28.8281 12.2179 28.8353 12.0981C28.8407 12.0083 28.8619 11.9044 28.9346 11.8456C28.9913 11.801 29.0579 11.7929 29.1178 11.7965C29.1844 11.7885 29.251 11.7805 29.3176 11.7724C29.4324 11.7613 29.5381 11.7526 29.6529 11.7415C30.1081 11.7177 30.5645 11.7721 30.9832 11.9054C31.0759 11.8118 31.1712 11.7273 31.2639 11.6338C31.2798 11.6197 31.3006 11.6239 31.3146 11.6398C31.3287 11.6557 31.3403 11.6624 31.3544 11.6783C31.3776 11.6917 31.4167 11.691 31.4442 11.6836C31.4717 11.6763 31.5034 11.6481 31.5284 11.6316C31.6603 11.5373 31.8037 11.4498 31.9595 11.408C32.1152 11.3663 32.2716 11.3637 32.4061 11.4258C32.5406 11.488 32.6391 11.599 32.6876 11.7431C32.6998 11.789 32.728 11.8207 32.7628 11.8408C32.7977 11.8609 32.8417 11.8786 32.8875 11.8663C32.9333 11.854 32.9626 11.8167 33.0035 11.7861C33.1121 11.6785 33.2299 11.5683 33.3642 11.4832C33.4985 11.3981 33.6377 11.3314 33.7825 11.322C33.9272 11.3127 34.0776 11.3608 34.1578 11.4768C34.2521 11.6086 34.2437 11.7974 34.233 11.977C34.338 11.9292 34.4283 11.8265 34.477 11.7152C34.7488 11.5933 34.9905 11.4696 35.2383 11.2951C35.4861 11.1207 35.7076 10.8846 35.8087 10.6022C35.8321 10.7629 35.9538 10.8874 36.1176 10.9122C36.2057 10.5449 36.432 10.1799 36.7408 9.93998C37.0496 9.7001 37.4784 9.61465 37.8048 9.73337C38.2076 9.88071 38.4195 10.305 38.5942 10.7001C38.8655 10.2837 39.1869 9.83424 39.6376 9.68399C40.1408 9.50985 40.6843 9.81587 40.7595 10.3162C40.7693 10.3528 40.7609 10.3943 40.764 10.4426C40.9716 10.3379 41.1155 10.1422 41.3016 9.99411C41.7423 9.65997 42.3851 9.71353 42.6679 10.1091C42.8813 9.80638 43.2532 9.61833 43.5916 9.63562C43.9301 9.65291 44.2237 9.86882 44.3188 10.187C44.4547 9.92474 44.7067 9.72953 44.984 9.66503C45.2613 9.60053 45.5388 9.68327 45.7168 9.87122C45.7566 9.90966 45.7896 9.95972 45.8587 9.96086C45.9277 9.96199 45.9796 9.89898 46.0223 9.83844C46.0649 9.7779 46.1076 9.71739 46.1718 9.7002C46.2547 9.56996 46.3481 9.51545 46.4831 9.46945C46.618 9.42346 46.7653 9.42328 46.9015 9.45549C47.2248 9.52595 47.4866 9.77 47.575 10.0998C47.7898 9.87531 48.1013 9.79182 48.3757 9.8263C48.65 9.86078 48.8787 10.0548 48.9658 10.3064C48.9805 10.3614 48.9953 10.4163 49.0485 10.4315C49.1133 10.4534 49.1834 10.3855 49.2469 10.3292C49.4599 10.1347 49.7879 10.0762 50.0061 10.1945C50.0184 10.2403 50.0557 10.2696 50.104 10.2665C50.1523 10.2633 50.1956 10.2419 50.2365 10.2113C50.4374 10.1182 50.6561 10.1283 50.848 10.1849C51.0399 10.2415 51.2166 10.3512 51.3549 10.5007C51.3946 10.5391 51.4393 10.5959 51.4992 10.5995C51.5499 10.6056 51.6092 10.57 51.6501 10.5394C51.7502 10.4733 51.8594 10.4048 51.9571 10.3295C52.1573 10.1973 52.3624 10.0834 52.5812 10.0935C52.7999 10.1036 53.0041 10.206 53.129 10.3787C53.1926 10.4697 53.252 10.5814 53.3718 10.5886C53.4524 10.5964 53.5367 10.5444 53.6002 10.4881C53.7613 10.3565 53.9083 10.2091 54.0578 10.0709C54.2073 9.9326 54.3917 9.81445 54.5865 9.77204C54.7814 9.72964 54.9892 9.77215 55.0883 9.92232C55.1189 9.96321 55.1337 10.0182 55.1801 10.045C55.2266 10.0718 55.2956 10.0729 55.3225 10.0265C55.4615 9.81246 55.6659 9.65948 55.8968 9.56815C56.1276 9.47683 56.3903 9.50461 56.5268 9.68406C56.5715 9.74082 56.5978 9.80249 56.6425 9.85925C56.6872 9.91601 56.7636 9.94465 56.8344 9.91584C56.8985 9.89865 56.9363 9.81977 56.979 9.75923C57.1363 9.54031 57.3989 9.42085 57.6384 9.43521C57.8779 9.44957 58.0743 9.63261 58.1265 9.8641C58.3639 9.61392 58.6079 9.35213 58.9187 9.22955C58.9359 9.29367 58.983 9.35959 59.0252 9.40719C59.0675 9.45479 59.1439 9.4834 59.2147 9.4546C59.3064 9.43005 59.3575 9.32795 59.4185 9.2625C59.5113 9.16891 59.6322 9.10705 59.7537 9.08429C59.8753 9.06153 59.9993 9.04793 60.1166 9.04595C60.2247 9.04642 60.3536 9.05114 60.4081 9.14454C60.4486 9.22208 60.4231 9.34675 60.4861 9.3986C60.5466 9.44129 60.6449 9.40512 60.7059 9.33967C60.7669 9.27422 60.8072 9.20456 60.8682 9.13911C60.9969 8.99659 61.2009 8.95172 61.3671 8.98572C61.5333 9.01973 61.671 9.13013 61.7811 9.24791C61.9713 8.9318 62.3719 8.8146 62.7102 8.68465C63.0852 8.54488 63.4601 8.40511 63.8443 8.26288C64.0733 8.2015 64.2918 8.06438 64.4988 7.92055C65.6219 7.12855 66.5534 6.02459 67.147 4.79521C67.2201 4.62833 67.334 4.43085 67.5088 4.4233C67.6535 4.41395 67.7411 4.5574 67.7388 4.69548C67.7366 4.83356 67.6677 4.97967 67.594 5.10746C67.0923 6.0569 66.6024 7.01305 66.1007 7.96249C66.1289 7.99423 66.1479 8.02843 66.1735 8.05101C66.1901 8.07604 66.1194 8.25208 66.1176 8.28202C66.0915 8.36759 66.0653 8.45315 66.0391 8.53872C65.9776 8.7123 65.9137 8.87674 65.829 9.03691C65.7443 9.19709 65.6596 9.35724 65.5541 9.51316C65.5047 9.58532 65.4485 9.6691 65.3991 9.74126C65.3565 9.80179 65.2765 9.83306 65.2478 9.90946C65.2326 9.96264 65.2382 10.0201 65.2847 10.0469C65.3477 10.0987 65.4534 10.0901 65.5096 10.1535C65.5659 10.217 65.5838 10.3202 65.5967 10.4051C65.6251 10.5841 65.5893 10.7802 65.4954 10.9429C65.4125 11.0731 65.2971 11.1924 65.2582 11.3403C65.2497 11.3819 65.2412 11.4234 65.2419 11.4625C65.2566 11.5175 65.2774 11.5217 65.3238 11.5486C65.4143 11.593 65.4956 11.64 65.5568 11.7218C65.6444 11.8652 65.6068 12.0913 65.464 12.218C65.4256 12.2577 65.3822 12.2792 65.3438 12.319C65.3053 12.3587 65.2785 12.4052 65.2816 12.4534C65.2939 12.4992 65.3129 12.5334 65.341 12.5652C65.3765 12.6244 65.3987 12.7068 65.3816 12.7899C65.3964 12.8449 65.3537 12.9055 65.2969 12.9501C65.2402 12.9948 65.181 13.0303 65.1566 13.0859C65.128 13.1623 65.1775 13.2374 65.2289 13.2826C65.2803 13.3277 65.3433 13.3796 65.3538 13.4553C65.3709 13.5194 65.324 13.6008 65.2788 13.6521C65.2337 13.7035 65.1702 13.7598 65.1275 13.8203C65.0848 13.8809 65.0471 13.9597 65.0643 14.0239C65.0864 14.1063 65.1793 14.16 65.1623 14.2431C65.152 14.3146 65.0745 14.355 65.0153 14.3905C64.956 14.426 64.876 14.4573 64.8541 14.522C64.8255 14.5984 64.8726 14.6644 64.9374 14.6863C65.0022 14.7082 65.078 14.6977 65.1537 14.6872C65.2815 14.761 65.3355 14.9626 65.2874 15.1129C65.257 15.2193 65.1734 15.3104 65.099 15.3991C65.0179 15.4994 64.9276 15.6021 64.8464 15.7024C64.8013 15.7538 64.7452 15.8376 64.7715 15.8992C64.7954 15.9518 64.8553 15.9554 64.9085 15.9706C65.068 16.0162 65.1604 16.178 65.1289 16.3533C65.1126 16.4756 65.0364 16.5942 64.9461 16.6969C64.8558 16.7997 64.763 16.8933 64.6819 16.9936C64.6367 17.045 64.6081 17.1214 64.6229 17.1763C64.6351 17.2221 64.6907 17.2465 64.7482 17.241C64.8056 17.2354 64.849 17.2139 64.904 17.1992C65.0458 17.2888 65.2109 17.3919 65.2551 17.5568C65.2919 17.6942 65.2463 17.8537 65.1542 17.9864C65.0621 18.1191 64.9327 18.2225 64.7959 18.2984C64.76 18.3474 64.6891 18.3762 64.6366 18.4001C64.5841 18.424 64.5316 18.4479 64.4815 18.4809C64.4315 18.514 64.4096 18.5787 64.4243 18.6337C64.444 18.707 64.5497 18.6983 64.6205 18.6695C64.6913 18.6407 64.764 18.5819 64.8422 18.5806C64.9087 18.5726 64.9692 18.6153 65.0115 18.6629C65.0537 18.7105 65.0617 18.7771 65.0697 18.8437C65.0815 18.9976 65.0476 19.1638 64.9695 19.3124C64.8915 19.461 64.7579 19.5852 64.6119 19.6635C64.5527 19.6991 64.4886 19.7162 64.4343 19.7701C64.38 19.8239 64.349 19.8911 64.3637 19.9461C64.3784 20.0011 64.4523 20.0206 64.5165 20.0034C64.5806 19.9862 64.6374 19.9415 64.6874 19.9084C64.844 20.053 64.9469 20.2906 64.891 20.5216C64.8351 20.7526 64.6686 20.974 64.4427 21.0836C64.406 21.0934 64.3627 21.1149 64.3334 21.1522C64.3041 21.1895 64.2865 21.2335 64.3146 21.2652C64.3428 21.297 64.3885 21.2847 64.4252 21.2749C64.5858 21.2514 64.7326 21.3594 64.7628 21.5084C64.7929 21.6574 64.6947 21.8409 64.5513 21.9284C64.4737 21.9689 64.3913 21.9909 64.3254 22.0381C64.2594 22.0852 64.2223 22.2032 64.2829 22.2459C64.3177 22.266 64.3752 22.2604 64.421 22.2481C64.5724 22.2271 64.7094 22.2985 64.7895 22.4145C64.8697 22.5304 64.8907 22.6819 64.8542 22.839C64.8202 23.0052 64.7172 23.1703 64.5952 23.3012C64.4731 23.4321 64.3371 23.5471 64.1918 23.6646C64.1766 23.7178 64.1846 23.7843 64.2311 23.8112C64.2776 23.838 64.3191 23.8465 64.354 23.8666C64.4793 23.9312 64.5118 24.0894 64.4821 24.2349C64.4523 24.3803 64.3511 24.5154 64.2541 24.6298C64.1053 24.8072 63.9283 24.9528 63.7464 25.0801C63.7562 25.1168 63.7819 25.1393 63.8118 25.1411C63.8417 25.1429 63.8833 25.1514 63.9133 25.1532C64.0379 25.1787 64.1089 25.2972 64.0951 25.4286C64.0812 25.5599 64.0074 25.6877 63.9146 25.7813C63.8219 25.8749 63.6943 25.9484 63.585 26.0169C63.5167 26.0549 63.4574 26.0904 63.4056 26.1534C63.3537 26.2164 63.3343 26.2903 63.3698 26.3496C63.4169 26.4155 63.5134 26.4093 63.605 26.3847C63.6967 26.3601 63.7834 26.3173 63.8573 26.3367C64.026 26.3799 64.1667 26.5386 64.2476 26.6936C64.3284 26.8487 64.3408 27.0418 64.3026 27.2288C64.257 27.3883 64.1698 27.5393 64.0802 27.6811C63.9905 27.823 63.8801 27.9606 63.7385 28.0182C63.7831 28.075 63.868 28.062 63.9371 28.0632C64.1442 28.0666 64.3051 28.1904 64.4567 28.3167C64.5313 28.3752 64.6084 28.4429 64.6671 28.5156C64.7259 28.5882 64.7712 28.6841 64.7708 28.7922C64.7747 29.0268 64.8343 29.2858 64.6953 29.4998C64.5562 29.7138 64.3426 29.8693 64.1167 29.9789C64.2107 29.9635 64.286 30.0612 64.274 30.1626C64.2619 30.264 64.1966 30.3503 64.1313 30.4365C64.066 30.5227 63.9867 30.5931 63.933 30.686C64.1212 30.6552 64.2863 30.7583 64.383 30.8993C64.4797 31.0403 64.5105 31.2284 64.5388 31.4074C64.6071 31.772 64.2594 32.1598 63.9603 32.4363C63.9378 32.462 63.906 32.4902 63.8834 32.5159C63.8609 32.5415 63.8548 32.5923 63.8714 32.6173C63.8787 32.6448 63.9087 32.6466 63.9343 32.6692C63.9833 32.7051 64.0029 32.7784 63.9993 32.8383C63.9957 32.8982 63.9647 32.9654 63.9244 33.0351C63.8976 33.0816 63.8683 33.1189 63.8531 33.1721C63.8379 33.2252 63.8319 33.276 63.86 33.3077C63.8881 33.3394 63.9297 33.3479 63.9712 33.3564C64.2438 33.4208 64.4232 33.687 64.3936 33.9797C64.3755 34.1318 64.3781 34.2882 64.286 34.4209C64.1939 34.5536 64.0786 34.6729 63.9609 34.783C63.6869 35.043 63.4013 35.2963 63.1273 35.5563C63.2506 35.5036 63.3911 35.515 63.4957 35.5754C63.5795 35.6315 63.634 35.7249 63.6768 35.8116C63.7503 35.9392 63.8195 36.0876 63.7947 36.2513C63.7748 36.4334 63.6326 36.5992 63.5063 36.7509C63.1769 37.1337 62.8475 37.5166 62.518 37.8995C62.6959 37.9402 62.7629 38.2266 62.6739 38.4076C62.5849 38.5886 62.4213 38.711 62.2718 38.8492C62.1223 38.9875 61.9661 39.1374 61.9395 39.3311C61.9146 39.4948 61.9863 39.6524 61.9822 39.8204C61.9782 39.9884 61.8483 40.2 61.6937 40.1727C61.8491 40.3863 61.8636 40.6966 61.7277 40.9589C61.5917 41.2212 61.3214 41.4213 61.0484 41.465C60.9553 41.814 60.7608 42.1509 60.51 42.4243C60.2526 42.7093 59.9272 42.9242 59.6086 43.1274C58.8644 43.6116 58.1295 44.0934 57.3712 44.5617C56.9158 44.8409 56.4629 45.1292 55.9903 45.3443C55.7118 45.4778 55.4352 45.5814 55.1469 45.6783C54.6663 45.8268 54.1801 45.9178 53.6872 46.0204C52.9029 46.1717 52.1187 46.323 51.3411 46.4627C49.9033 46.74 48.3805 47.0303 46.9839 47.5716C46.6639 47.6966 46.3373 47.8333 46.0198 47.9675C46.2617 47.991 46.5331 48.1244 46.7659 48.1504C47.0494 48.1824 47.3305 48.2053 47.6049 48.2398C48.1004 48.2935 48.596 48.3473 49.0781 48.4243C51.454 48.789 53.6619 49.6996 55.521 51.067C55.1933 51.42 54.6644 51.5716 54.2641 51.4334C54.2415 51.4591 54.2189 51.4848 54.1963 51.5104C54.3835 51.6959 54.2221 52.0829 53.9694 52.239C53.7166 52.3951 53.4105 52.3888 53.1295 52.3659C53.2731 52.4256 53.2588 52.6651 53.1343 52.7869C53.0098 52.9086 52.8382 52.9644 52.6733 53.0086C52.3893 53.0847 52.1028 53.1517 51.8164 53.2186C51.7415 53.4154 51.5786 53.5769 51.3795 53.6401C51.1804 53.7033 50.9751 53.67 50.8442 53.5479C50.8707 53.7568 50.6914 54.0405 50.4881 54.1245L49.974 53.9284C50.0884 54.0254 50.0459 54.2332 49.9214 54.355C49.7969 54.4767 49.6204 54.5142 49.4622 54.5468C49.031 54.6231 48.5918 54.6328 48.1719 54.5685C48.1339 54.9028 47.8165 55.1842 47.5008 55.2885C47.1851 55.3927 46.8441 55.3663 46.5307 55.3325C46.5073 55.7217 46.2909 56.1234 45.9662 56.3773C45.6415 56.6313 45.2177 56.7351 44.862 56.6536C44.6731 57.0479 44.206 57.3204 43.8045 57.2513C43.7683 57.5556 43.5848 57.8601 43.3327 58.0553C43.0806 58.2505 42.7508 58.3389 42.4624 58.2885C42.2571 58.2552 42.0321 58.1485 41.8318 58.2808C41.7317 58.3469 41.6738 58.4606 41.6019 58.5584C41.3457 58.9217 40.8964 59.1501 40.4864 59.1225C40.4473 59.1232 40.4021 59.1746 40.3581 59.1569C40.0362 59.7145 39.3542 60.0642 38.7707 59.9752C38.6856 60.3907 38.4002 60.7913 38.0174 61.0117C37.6347 61.2321 37.182 61.265 36.8225 61.0963C36.7303 61.6316 36.3155 62.1355 35.8014 62.3421C35.2872 62.5486 34.6987 62.4412 34.3659 62.0787L34.6083 62.3967C34.1861 62.8732 33.398 62.9371 33.048 62.5105C32.8996 62.9823 32.4785 63.3898 31.9997 63.5083C31.5208 63.6268 31.0325 63.4533 30.7962 63.0846C30.6267 63.4049 30.2647 63.6296 29.9286 63.6215C29.5926 63.6134 29.3058 63.3859 29.229 63.0628C28.9343 63.3185 28.5176 63.3025 28.1626 63.2602C27.6554 63.1998 27.1574 63.1369 26.6502 63.0764C25.5943 62.947 24.4969 62.8091 23.6274 62.2762C23.1528 62.3739 22.6651 62.2396 22.3086 61.9718C22.0872 61.8053 21.911 61.5874 21.6402 61.493C21.4251 61.423 21.1771 61.4502 20.9375 61.4359C20.3504 61.4067 19.8185 61.1074 19.5136 60.6294C19.2088 60.1514 19.1383 59.5222 19.3215 58.9232C18.8884 58.4796 18.6945 57.9031 18.4842 57.3016C18.3585 56.9425 18.2304 56.5743 18.148 56.1937C18.0202 55.5701 17.99 54.8712 17.6002 54.4062C17.4007 54.1749 17.1012 54.0097 16.7707 54.059C16.4195 54.104 16.0972 54.3671 15.8116 54.6204C14.6692 55.6336 13.5573 56.6877 12.4712 57.7644C12.5366 57.2755 12.299 56.8286 11.8729 56.6678L11.9518 56.7056Z" fill="#5D9651" fill-opacity="0.57"/>
<path d="M15.2298 53.5494C15.2298 53.5494 15.2274 53.5402 15.2157 53.5335C15.1735 53.4859 15.1838 53.4144 15.2057 53.3496C15.2701 53.0771 15.3462 52.8112 15.3532 52.5442C15.3714 51.9895 15.1857 51.4795 14.9957 50.9904C14.5893 49.9504 14.1096 48.9302 13.4438 48.058C13.0815 47.5855 12.6649 47.1669 12.3051 46.7037C12.0768 46.4015 11.8644 46.0853 11.6679 45.755C11.573 45.5841 11.478 45.4132 11.3831 45.2422C11.3023 45.0871 11.1866 44.9119 11.14 44.7379C11.1203 44.6646 11.119 44.5864 11.0902 44.5156C11.0424 44.4105 10.9922 44.2963 10.9352 44.1938C10.828 43.977 10.7209 43.7602 10.6045 43.5459C10.5261 43.4 10.4611 43.2309 10.3986 43.0709C10.3336 42.9018 10.2686 42.7326 10.2195 42.5494C10.2023 42.4852 10.1827 42.412 10.163 42.3387C10.1311 42.2196 10.0992 42.1005 10.0972 41.9832C10.062 41.6686 9.97185 41.3687 9.8725 41.0713C9.83076 40.9155 9.78902 40.7598 9.74973 40.6132C9.71044 40.4667 9.6412 40.3183 9.60862 40.1601C9.68862 40.1288 9.77878 40.4287 9.79352 40.4837C9.87568 40.7169 9.94872 40.9527 10.0309 41.186C10.1081 41.4009 10.1945 41.6134 10.2351 41.8382C10.2789 42.1112 10.35 42.3769 10.4304 42.6401C10.4672 42.7776 10.52 42.9009 10.5818 43.0218C10.6437 43.1427 10.7031 43.2544 10.7649 43.3753L11.116 44.1355L11.2882 44.5214C11.3384 44.6356 11.4088 44.7149 11.4749 44.815C11.5385 44.906 11.6046 45.0061 11.6683 45.0971C11.7319 45.188 11.8023 45.2673 11.8384 45.3657C11.8949 45.5764 12.0198 45.7491 12.1422 45.9127C12.3662 46.2356 12.5994 46.556 12.8326 46.8765C12.8913 46.9491 12.9433 47.0334 13.0021 47.106C13.0418 47.1444 13.0883 47.1713 13.128 47.2097C13.2657 47.3201 13.3539 47.5027 13.4506 47.6437C13.8962 48.2804 14.3259 48.9311 14.6872 49.6198C14.7466 49.7315 14.8085 49.8524 14.8679 49.9642C15.1539 50.5552 15.4016 51.186 15.5484 51.8438C15.6276 52.1761 15.6769 52.5065 15.7012 52.8535C15.7266 53.1315 15.7026 53.4816 15.338 53.5499C15.2921 53.5621 15.2414 53.5561 15.2066 53.536L15.2298 53.5494Z" fill="#D6E483"/>
<path d="M15.2347 41.4407C15.0333 41.0921 14.8318 40.7435 14.6303 40.3949C14.4999 40.1647 14.3604 39.937 14.2275 39.6977C14.1754 39.6134 14.1649 39.5377 14.1404 39.4461C14.1085 39.327 14.0307 39.2202 13.9713 39.1085C13.7288 38.6432 13.4771 38.1804 13.1937 37.7458C13.078 37.5706 12.9648 37.4046 12.8582 37.2269C12.7517 37.0493 12.6843 36.8709 12.5961 36.6884C12.4197 36.3232 12.25 35.9465 12.0919 35.5764C11.9001 35.1173 11.7266 34.6531 11.5781 34.1725C11.5051 33.9368 11.4297 33.6919 11.375 33.4513C11.3431 33.3322 11.3087 33.2039 11.2768 33.0848C11.2596 33.0207 11.2424 32.9565 11.2252 32.8924C11.2154 32.8558 11.1817 32.7666 11.1902 32.7251C11.1463 32.8546 11.0934 32.9867 11.1094 33.1198C11.1255 33.253 11.1274 33.3703 11.1343 33.5059C11.153 33.7955 11.22 34.0819 11.312 34.3519C11.4598 34.7934 11.6784 35.2061 11.8946 35.6097C12.0158 35.8423 12.1187 36.0799 12.2308 36.3149C12.3264 36.525 12.4111 36.7674 12.5475 36.9469C12.6981 37.1422 12.7809 37.4146 12.8972 37.6289C13.0185 37.8615 13.1398 38.0941 13.2769 38.3127C13.4165 38.5404 13.5445 38.7614 13.6749 38.9915C13.7888 39.1967 13.871 39.4299 14.019 39.6161C14.0827 39.7071 14.1171 39.8353 14.174 39.9379C14.2334 40.0496 14.2904 40.1522 14.3565 40.2523C14.4085 40.3365 14.4355 40.4373 14.4875 40.5215C14.5469 40.6333 14.6155 40.7426 14.6749 40.8543C14.9896 41.3689 15.2951 41.886 15.6123 42.4098C16.1425 43.2889 16.6867 44.1839 17.4006 44.9057C17.4006 44.9057 17.4462 44.7462 17.4505 44.7254C17.4425 44.6589 17.3984 44.6412 17.3471 44.596C17.2559 44.5125 17.1874 44.4032 17.1188 44.2939C17.0098 44.1071 16.9125 43.927 16.7467 43.7848C16.6183 43.672 16.5075 43.5151 16.4108 43.3741C15.9817 42.7625 15.6119 42.1153 15.2421 41.4682L15.2347 41.4407Z" fill="#A0C150"/>
<path d="M16.349 53.7701C16.3751 54.0872 16.1482 54.4131 15.8827 54.6316C15.6172 54.85 15.3021 54.9934 15.0177 55.1777C14.2418 55.69 13.6966 56.5136 12.9753 57.1194C12.8642 57.2179 12.7116 57.3079 12.5954 57.2408C12.5141 57.1939 12.4938 57.0815 12.4784 56.9874C12.463 56.8934 12.4036 56.7816 12.3071 56.7879C13.151 55.9431 13.9973 55.1075 14.832 54.2651C15.0016 54.092 15.178 53.9073 15.2248 53.6787C15.2545 53.5333 15.2402 53.3702 15.421 53.3119C15.5218 53.2849 15.6849 53.2706 15.7839 53.2735C16.0717 53.2848 16.3212 53.483 16.349 53.7701Z" fill="#617B36"/>
<path d="M24.4719 20.6909L25.1181 19.5848C25.2723 19.3177 25.429 19.0596 25.5833 18.7925C25.74 18.5344 25.8942 18.2673 26.0418 18.0117C26.2228 17.698 26.413 17.382 26.5941 17.0683C26.7282 16.836 26.8947 16.6146 27.0288 16.3823C26.6337 17.5094 26.0724 18.6025 25.3784 19.6035C25.0686 20.0596 24.8603 20.5279 24.641 21.0285C23.4445 23.7451 22.3519 26.4829 21.615 29.3022C21.3104 30.4738 21.0033 31.6362 20.6987 32.8078C20.4203 33.8938 20.1785 34.97 19.9208 36.0603C19.2377 38.9339 18.5204 41.8264 17.8557 44.6951C17.2316 47.3859 16.6168 50.0742 15.9902 52.7559C15.9538 52.913 15.9106 53.0816 15.7812 53.1851C15.6518 53.2885 15.3799 53.2632 15.4164 53.1061C15.8004 51.4615 16.1936 49.8145 16.5777 48.1699C16.6785 47.7403 16.7446 47.2906 16.8571 46.8676C16.9264 46.6134 17.0165 46.3634 17.0791 46.1208C17.1138 45.9937 17.1252 45.8531 17.1599 45.726C17.1878 45.6105 17.2457 45.4968 17.2645 45.3837C17.4419 44.5801 17.6077 43.7698 17.7851 42.9662C18.2369 40.8419 18.8441 38.7841 19.3766 36.6676C19.9152 34.5005 20.4562 32.3426 21.0156 30.1797C21.3743 28.807 21.8326 27.4764 22.3185 26.1384C22.5888 25.3884 22.8799 24.6427 23.1618 23.8994C23.5363 22.9153 23.92 21.9287 24.2945 20.9446C23.9184 20.201 23.5644 19.5398 23.2134 18.7796C22.8434 17.9852 22.4776 17.17 22.4667 16.2499C22.4653 16.1717 22.5697 16.0849 22.5983 16.0084C22.5343 16.5755 22.6908 17.1227 22.8674 17.6351C23.2519 18.7398 23.8146 19.7771 24.461 20.7233L24.4719 20.6909Z" fill="#B5D06F"/>
<path d="M55.6365 18.3778C54.9683 18.9987 54.3092 19.6172 53.6435 20.2474C53.0162 20.8377 52.4121 21.4415 51.8196 22.052C51.6567 22.2135 51.5029 22.3725 51.34 22.534C51.2088 22.6674 51.077 22.7616 50.9409 22.8767C50.6052 23.163 50.2885 23.4835 49.9786 23.7925C49.3519 24.4219 48.7277 25.0606 48.0564 25.6333C47.6011 26.0597 47.1129 26.436 46.6295 26.8307C45.2361 27.97 43.8874 29.1662 42.5387 30.3623C41.19 31.5584 39.8529 32.7613 38.4736 33.9165C35.629 36.3089 32.9508 38.8825 30.0284 41.1681C27.8123 42.9012 25.7631 44.8546 23.5519 46.6059C21.8197 47.9833 20.1347 49.4267 18.4497 50.8701C17.5812 51.6232 16.6786 52.3954 15.7986 53.1419C15.8904 53.2646 15.9821 53.3873 16.1124 53.4702C16.2426 53.5531 16.4021 53.5987 16.5646 53.5454C16.7112 53.5061 16.8332 53.3752 16.951 53.2651C17.2067 53.01 17.4715 52.7524 17.7247 52.4882C19.6932 50.527 21.8763 48.7439 24.035 47.0165C26.1621 45.3171 28.1403 43.3926 30.2533 41.6774C32.0782 40.2064 33.7673 38.595 35.5169 37.0263C36.5934 36.0602 37.679 35.0917 38.8002 34.1824C41.0969 32.31 43.2075 30.1831 45.4007 28.1812C45.6454 27.9585 45.8877 27.7267 46.1349 27.5132C46.2234 27.4403 46.3192 27.395 46.4193 27.3289C46.5603 27.2322 46.6848 27.1104 46.8209 26.9954C47.4922 26.4227 48.1586 25.8317 48.7877 25.2114C49.0977 24.9025 49.382 24.571 49.6969 24.2804C50.0368 23.9733 50.3743 23.6569 50.7142 23.3498C51.643 22.4921 52.5626 21.6368 53.4798 20.7724C54.8656 19.4583 56.2423 18.1467 57.6281 16.8326C56.936 17.401 56.2815 17.7434 55.6316 18.3595L55.6365 18.3778Z" fill="#BFD958"/>
<path d="M33.1113 14.7519C33.1113 14.7519 33.082 14.7892 33.0686 14.8124C33.004 14.9377 32.9792 15.1015 32.9353 15.2311L32.8045 15.6589C32.6147 16.2695 32.4181 16.8917 32.2283 17.5023C31.9794 18.2956 31.7305 19.0889 31.5324 19.8883C31.4205 20.3503 31.3411 20.8233 31.25 21.2896L31.0783 22.1506C31.0485 22.2961 31.0187 22.4415 30.9957 22.5754C30.9836 22.6768 31.0081 22.7684 31.0052 22.8674C30.994 23.1551 30.9919 23.4405 30.9806 23.7282C30.9784 23.8663 30.9694 24.016 30.9671 24.1541L30.957 24.3728C30.957 24.3728 30.9713 24.5359 30.9487 24.5616C30.9298 25.0773 30.9201 25.5905 30.9012 26.1062C30.8872 26.6401 30.9239 27.1802 30.9166 27.7026C30.9144 28.3905 30.9098 29.0693 30.8985 29.7597C30.8921 30.0658 30.8974 30.3786 30.8911 30.6847C30.8934 31.0964 30.9525 31.4636 30.9249 31.8735C30.8168 33.3754 30.7155 34.8657 30.6074 36.3675C30.5029 37.8095 30.4058 39.2789 30.7026 40.6428C30.5683 40.7279 30.4499 40.799 30.3181 40.8932C30.0774 39.4456 30.1897 37.9229 30.3044 36.4094C30.415 34.9167 30.5255 33.424 30.6452 31.9289C30.6885 31.3576 30.6444 30.7901 30.6486 30.2194C30.6512 29.4234 30.6471 28.6389 30.659 27.8404C30.6745 26.5793 30.7554 25.3793 30.7526 24.1232C30.7507 23.6033 30.752 23.1316 30.8375 22.6079C31.0035 21.5422 31.2295 20.4801 31.497 19.4265C31.6283 18.8905 31.8194 18.3581 31.9923 17.8306C32.1651 17.3032 32.3281 16.7391 32.4753 16.189C32.5726 15.8193 32.6466 15.4361 32.7647 15.0706C32.8085 14.941 32.8646 14.8573 32.9525 14.7453C33.3355 14.2695 33.7351 13.8187 34.172 13.3972C34.3826 13.1935 34.5931 12.9898 34.8085 12.8044C34.4114 13.2644 34.0075 13.7359 33.6104 14.1959C33.5134 14.3102 33.4072 14.4271 33.3102 14.5414C33.2492 14.6069 33.1699 14.6772 33.1113 14.7519Z" fill="#BAD978"/>
<path d="M53.1142 45.054C53.0342 45.0853 52.9659 45.1232 52.8859 45.1545C52.8309 45.1692 52.7851 45.1815 52.7301 45.1962C52.666 45.2134 52.6001 45.2605 52.5409 45.2961C52.2832 45.4338 52.0164 45.5741 51.7563 45.7027C51.437 45.8669 51.1176 46.031 50.772 46.1335C50.4996 46.2163 50.2082 46.2649 49.9457 46.3844C50.3434 46.3662 50.7386 46.3388 51.1363 46.3206C50.7467 46.4054 50.338 46.456 49.9465 46.5707C48.7129 46.9505 47.402 47.1152 46.2677 47.7924C46.0308 47.9344 45.7578 47.9781 45.4988 48.0377C44.9809 48.1569 44.4631 48.4233 43.936 48.545C43.4089 48.6666 42.8403 48.7797 42.2924 48.8971C42.2374 48.9119 42.1824 48.9266 42.1335 48.8906C42.1078 48.8681 42.0956 48.8222 42.1065 48.7898C42.1175 48.7574 42.1095 48.6909 42.151 48.6994C42.1602 48.6969 42.1809 48.7012 42.1925 48.7079C42.1248 48.7849 42.0828 48.8846 42.0151 48.9616C40.8863 49.1463 39.7691 49.3378 38.6403 49.5225C38.4705 49.5484 38.3159 49.5211 38.1436 49.5378C36.8039 49.6317 35.4527 49.8662 34.1293 50.2406C33.4972 50.41 32.8575 50.4047 32.2174 50.5075C31.5772 50.6104 30.9218 50.7664 30.2732 50.9108C28.9759 51.1996 27.681 51.4975 26.3837 51.7863C22.9664 52.5549 19.5491 53.3235 16.1434 54.0989C16.2073 53.9344 16.3274 53.6862 16.3981 53.5102C18.7764 52.9316 21.1523 52.344 23.5306 51.7655C24.36 51.5628 25.2377 51.357 26.063 51.3224C27.7669 51.2683 29.5286 50.5506 31.2431 50.1697C33.6337 49.6369 36.0583 49.4879 38.459 49.139C39.2714 49.0195 40.0748 49.0496 40.8884 48.861C41.1357 48.7948 41.3856 48.7376 41.6336 48.7104C41.8816 48.6832 42.1034 48.7416 42.3324 48.6802C42.9554 48.5132 43.5777 48.3071 44.2074 48.1286C45.0795 47.8654 45.9632 47.6089 46.8353 47.3457C47.1993 47.2383 47.5542 47.1334 47.9181 47.026C48.1563 46.9622 48.4012 46.8867 48.637 46.8137C48.7652 46.7793 48.8843 46.7474 49.0101 46.7039C49.1109 46.6769 49.167 46.5931 49.2745 46.5545C49.487 46.4681 49.6995 46.3816 49.9144 46.3044C50.3577 46.1267 50.7894 45.9422 51.2303 45.7553C51.4953 45.645 51.7671 45.5231 52.0321 45.4128C52.1304 45.3766 52.1981 45.2995 52.3007 45.2426C52.4308 45.1783 52.5608 45.114 52.6908 45.0497C52.83 44.9829 52.9601 44.9186 53.0993 44.8518C53.6654 44.5823 54.2503 44.3469 54.8261 44.114C54.9678 44.0564 55.1138 43.978 55.2604 43.9387C55.3703 43.9093 55.4735 43.8914 55.5877 43.8412C55.7886 43.7481 55.9423 43.589 56.1334 43.4593C56.3244 43.3295 56.5113 43.2205 56.7023 43.0908C56.9618 42.923 57.2096 42.7486 57.4666 42.5717C57.5918 42.4891 57.7376 42.4107 57.8579 42.3097C58.2662 41.9646 58.7265 41.7038 59.1918 41.4612C59.2943 41.4043 59.3902 41.359 59.4977 41.3203C59.6051 41.2817 59.6612 41.1979 59.7381 41.1184C59.9395 40.9172 60.1292 40.7092 60.3281 40.4988C60.5112 40.3024 60.7009 40.0945 60.8234 39.8554C60.9014 39.7069 60.9537 39.5357 60.9994 39.3762L61.1454 38.8952C61.1454 38.8952 61.2157 38.9745 61.2213 39.032C61.2269 39.0894 61.2117 39.1426 61.1873 39.1982C61.0498 39.6376 60.7992 40.0583 60.504 40.4222C60.3192 40.6485 60.1135 40.8705 59.903 41.0742C59.7175 41.2614 59.5253 41.4602 59.2976 41.5998C59.0333 41.7492 58.7622 41.9102 58.4979 42.0596C58.2518 42.2041 58.0265 42.3529 57.783 42.5065C57.2824 42.8371 56.7727 43.1701 56.2721 43.5006C56.0719 43.6329 55.8809 43.7626 55.6757 43.8765C55.4706 43.9904 55.2648 44.0652 55.0829 44.1925C54.9736 44.2611 54.8502 44.3138 54.7244 44.3573C54.4912 44.4395 54.2604 44.5308 54.0271 44.6129C53.9196 44.6516 53.7889 44.6768 53.6888 44.7429C53.6045 44.7949 53.5252 44.8653 53.4385 44.9082C53.386 44.9321 53.3334 44.956 53.2834 44.989C53.2333 45.0221 53.1784 45.0368 53.1258 45.0607L53.1142 45.054Z" fill="#D6E69D"/>
<path d="M59.3559 35.5172C59.2491 35.5949 59.1331 35.675 59.0263 35.7528C58.6875 35.9909 58.323 36.2064 57.9555 36.3737C57.8254 36.438 57.6813 36.4864 57.5512 36.5507C57.4486 36.6077 57.3534 36.6921 57.2442 36.7607C56.9847 36.9284 56.7369 37.1028 56.4824 37.2889C56.2279 37.4749 55.928 37.5651 55.6324 37.6345C54.4573 37.9397 53.3012 38.279 52.1131 38.4992C51.7851 38.5577 51.4461 38.6485 51.1132 38.6887C50.9892 38.7023 50.8786 38.6926 50.7546 38.7062C50.5848 38.7321 50.4266 38.7647 50.2568 38.7905C49.7773 38.87 49.3021 38.9286 48.8275 39.0263C47.4428 39.3189 46.0269 39.5315 44.6492 39.557C43.7316 39.5771 42.8115 39.5881 41.8939 39.6082C38.6003 39.6661 35.286 39.7198 31.9704 40.2451C31.858 40.2654 31.7364 40.2882 31.6529 40.3793C31.5693 40.4704 31.617 40.5755 31.7252 40.576C32.6984 40.5802 33.6831 40.444 34.666 40.3376C35.8761 40.1999 37.0894 40.1103 38.2916 40.0532C38.894 40.0292 39.4964 40.0053 40.0945 40.0021C40.6927 39.9989 41.2664 40.0513 41.8382 39.9864C42.8027 39.885 43.7729 39.841 44.7356 39.7695C45.1401 39.7397 45.5445 39.7099 45.9464 39.6709C46.3484 39.6319 46.7662 39.5788 47.1816 39.5166C47.2549 39.4969 47.3422 39.4931 47.418 39.4827C47.7393 39.4358 48.0326 39.5045 48.349 39.4393C48.8053 39.3465 49.2175 39.236 49.672 39.1731C50.1173 39.1127 50.5693 39.0406 51.014 38.9411C51.4586 38.8415 51.8568 38.7152 52.282 38.6896C52.629 38.6654 52.9728 38.5928 53.316 38.4812C53.4901 38.4345 53.6611 38.3396 53.8327 38.2838C54.0043 38.228 54.1992 38.1856 54.3824 38.1365C54.7555 38.0266 55.1262 37.9077 55.4902 37.8003C55.8084 37.7052 56.1438 37.6742 56.4644 37.5883C56.8831 37.7216 57.3238 37.9373 57.7517 38.0681C58.2675 38.2342 58.8017 38.3955 59.3741 38.3697C59.9557 38.3415 60.5365 38.1269 61.0744 37.8256C61.6122 37.5243 62.0981 37.1388 62.5955 36.76C62.3194 36.7555 62.0581 36.9532 61.8127 37.1368C61.1175 37.6569 60.3379 38.0819 59.5322 38.1899C58.9995 38.2541 58.4691 38.1802 57.979 38.0366C57.4888 37.8931 57.0272 37.6731 56.5773 37.4598C57.3648 36.9542 58.1615 36.4461 58.9514 35.9496C59.6229 35.5242 60.3127 35.0938 61.0487 34.9456C61.5807 34.8423 62.127 34.9021 62.6584 34.7597C61.754 34.6093 60.8309 34.7192 59.9389 35.1645C59.7221 35.2717 59.5311 35.4015 59.34 35.5312L59.3559 35.5172Z" fill="#DAE79D"/>
<path d="M38.5093 15.77C38.5093 15.77 38.5191 15.8067 38.5264 15.8342C38.5351 15.9399 38.4571 16.0884 38.4267 16.1948C38.3415 16.4631 38.2679 16.7381 38.2035 17.0107C38.0697 17.5375 37.9568 18.0685 37.8438 18.5996C37.6161 19.6916 37.4042 20.7697 37.1673 21.8642C36.9457 22.9055 36.7222 23.9768 36.5995 25.0211C36.4689 26.146 36.3902 27.208 36.2988 28.3322C36.2813 28.5235 36.2663 28.7239 36.2397 28.9176C36.1447 29.6991 35.96 30.4752 35.8834 31.2519C35.8025 32.0493 35.7009 32.8424 35.5992 33.6356C35.5623 33.9008 35.5253 34.166 35.4884 34.4312C35.4533 34.6664 35.445 34.8552 35.4465 35.0807C35.4587 35.5291 35.3676 35.9954 35.1702 36.4312C35.1391 36.4985 35.1105 36.5749 35.091 36.6488C35.0716 36.7228 35.0937 36.8052 35.1426 36.8412L35.6814 36.3237C35.6375 35.9034 35.7109 35.4811 35.7636 35.0546C35.8446 34.4044 35.9165 33.7568 35.9975 33.1066C36.0598 32.5695 36.1245 32.0415 36.1867 31.5044C36.336 30.2664 36.4628 29.0541 36.5339 27.8175C36.5876 26.7721 36.7867 25.7564 36.9302 24.7164C37.0737 23.6764 37.2306 22.6131 37.4224 21.57L37.6499 20.3307C37.7275 19.8877 37.8559 19.4506 37.9543 19.0118C38.0187 18.7393 38.0716 18.46 38.1152 18.1832C38.1358 18.0402 38.1539 17.8881 38.1629 17.7384C38.1719 17.5887 38.2199 17.4383 38.2588 17.2904C38.266 17.1706 38.3232 17.0178 38.3512 16.9023C38.3792 16.7868 38.4047 16.6622 38.4351 16.5558C38.4789 16.4263 38.5343 16.3034 38.5898 16.1805C38.6848 15.9488 38.7602 15.6439 38.9224 15.4433C39.114 15.2054 39.2823 14.9541 39.4738 14.7162C40.2167 13.7511 40.9994 12.8245 41.8194 11.9272C41.1247 12.3393 40.6068 13.0083 40.114 13.6609C39.8438 14.0082 39.5852 14.3623 39.315 14.7096L38.9728 15.1548C38.9142 15.2295 38.8581 15.3132 38.7996 15.3878C38.7703 15.4251 38.7234 15.5064 38.6892 15.5254C38.6049 15.5775 38.5008 15.409 38.4678 15.3589C38.4372 15.318 38.4225 15.2631 38.401 15.2197C38.363 15.1513 38.3318 15.0713 38.303 15.0005C38.2552 14.8955 38.205 14.7813 38.1572 14.6763C38.1143 14.5896 38.0439 14.5102 37.9852 14.4376C37.7006 14.072 37.4478 13.6783 37.1315 13.3408C36.9113 13.1053 36.6611 12.8679 36.364 12.7119C36.0344 12.5449 35.658 12.4592 35.2762 12.4634C35.3141 12.5317 35.4064 12.5463 35.4804 12.5658C35.866 12.649 36.2321 12.8061 36.5507 13.0055C36.7041 13.1018 36.8692 13.2049 37.0117 13.3336C37.1567 13.4715 37.2657 13.6583 37.3698 13.8268C37.6374 14.2755 37.9208 14.7102 38.1975 15.1564C38.3181 15.35 38.4802 15.552 38.5416 15.781L38.5093 15.77Z" fill="#C1DB7E"/>
<path d="M63.0834 29.5293C63.0468 29.5391 63.0126 29.558 62.9693 29.5795C62.9326 29.5893 62.8868 29.6016 62.8526 29.6206C62.761 29.6451 62.6719 29.6788 62.5894 29.7009C62.5344 29.7157 62.4795 29.7304 62.4153 29.7476C62.3695 29.7598 62.3237 29.7722 62.2755 29.7753C62.2388 29.7851 62.2113 29.7924 62.1722 29.7931C61.8668 29.8259 61.5583 29.8104 61.2564 29.7833C61.2265 29.7815 61.1874 29.7821 61.1575 29.7803C61.0493 29.7798 60.9412 29.7794 60.833 29.7789C60.7823 29.7729 60.7249 29.7784 60.6742 29.7724C60.6052 29.7713 60.5336 29.7609 60.4713 29.7482C60.4298 29.7397 60.3882 29.7312 60.3466 29.7227C60.3375 29.7251 60.3234 29.7093 60.3051 29.7142C59.9603 29.6004 59.6156 29.4866 59.2423 29.4492C59.2032 29.4498 59.1616 29.4413 59.1225 29.442C59.0718 29.4359 59.0144 29.4415 58.957 29.4471C58.8879 29.4459 58.8122 29.4564 58.7456 29.4645C58.6516 29.4799 58.5599 29.5044 58.4775 29.5265C58.4225 29.5412 58.3584 29.5584 58.3058 29.5823C58.26 29.5946 58.2167 29.616 58.1734 29.6375C58.1276 29.6497 58.0842 29.6712 58.0408 29.6926C57.76 29.817 57.4442 29.9213 57.1542 30.0481C57.1084 30.0604 57.065 30.0818 57.0308 30.1008C57.0125 30.1057 56.985 30.1131 56.9692 30.1272C56.6016 30.2944 56.2333 30.4226 55.8602 30.5324C55.2397 30.7085 54.6111 30.8181 53.9918 30.9252C53.9643 30.9325 53.9277 30.9423 53.9002 30.9497C53.7237 30.9872 53.5563 31.0222 53.3798 31.0597C53.3065 31.0794 53.2332 31.099 53.1666 31.107C53.0659 31.134 52.951 31.1452 52.8478 31.163C52.7928 31.1778 52.7446 31.1809 52.6871 31.1865C52.127 31.258 51.5612 31.2722 51.0048 31.4311C50.9682 31.4409 50.9316 31.4508 50.8949 31.4606C50.8125 31.4827 50.7275 31.4956 50.6493 31.497C50.4404 31.5235 50.2334 31.5201 50.0262 31.5167C50.0079 31.5216 49.9871 31.5173 49.9664 31.5131C49.9389 31.5205 49.9065 31.5095 49.8765 31.5077C49.8582 31.5126 49.8283 31.5108 49.8075 31.5066C49.7891 31.5115 49.7708 31.5164 49.7525 31.5213C49.4728 31.5766 49.1832 31.5953 48.9003 31.6024C48.8728 31.6098 48.8313 31.6013 48.7922 31.6019C48.7739 31.6069 48.7531 31.6026 48.7348 31.6075C48.6981 31.6173 48.6615 31.6271 48.6248 31.637C48.5882 31.6468 48.5424 31.6591 48.5057 31.6689C48.4874 31.6738 48.4783 31.6762 48.4599 31.6812C48.0256 31.7092 47.6004 31.7348 47.1752 31.7604C47.1178 31.766 47.0671 31.7599 47.0096 31.7655C46.9822 31.7728 46.9523 31.7711 46.9156 31.7809C46.8423 31.8005 46.7641 31.8018 46.6792 31.8148C46.6151 31.832 46.546 31.8308 46.4794 31.8389C46.4336 31.8511 46.3737 31.8475 46.3255 31.8507C45.9027 31.8854 45.4903 31.8486 45.0712 31.8235L44.9423 31.8188L44.8616 31.811L44.8109 31.8049C44.6795 31.791 44.5463 31.8071 44.4149 31.7932C44.3966 31.7981 44.3759 31.7939 44.3642 31.7872C43.6359 31.7074 42.9075 31.6277 42.1792 31.548C42.17 31.5504 42.1492 31.5462 42.1376 31.5395C42.1376 31.5395 42.1285 31.5419 42.1169 31.5352C42.1169 31.5352 42.1077 31.5377 42.0961 31.531C42.0844 31.5243 42.0869 31.5334 42.0844 31.5243C42.0844 31.5243 42.0844 31.5243 42.082 31.5151C42.0563 31.4925 42.0465 31.4559 42.055 31.4143C42.0635 31.3728 42.0812 31.3288 42.1221 31.2982C42.1221 31.2982 42.1312 31.2957 42.1403 31.2933C42.1403 31.2933 42.1495 31.2908 42.1587 31.2883C42.1587 31.2883 42.177 31.2835 42.1837 31.2718C42.2404 31.2272 42.2972 31.1825 42.3571 31.1861C42.3571 31.1861 42.3663 31.1836 42.3754 31.1812C42.4586 31.1982 42.5349 31.2268 42.6181 31.2438C42.7219 31.265 42.8283 31.2955 42.9413 31.3143C43.0244 31.3313 43.1075 31.3483 43.1882 31.3561C43.2505 31.3688 43.322 31.3791 43.3819 31.3827C43.894 31.4615 44.4188 31.478 44.9461 31.5036C44.9968 31.5096 45.0567 31.5132 45.105 31.5101C45.174 31.5112 45.2547 31.519 45.3237 31.5202C45.4135 31.5256 45.5125 31.5285 45.6023 31.5339C45.7221 31.5411 45.8418 31.5482 45.9616 31.5554C46.1113 31.5644 46.261 31.5734 46.4082 31.5732C46.528 31.5804 46.6453 31.5784 46.7626 31.5764C46.8707 31.5769 46.9672 31.5706 47.0729 31.5619C47.1603 31.5582 47.2477 31.5544 47.3234 31.5439C47.3808 31.5384 47.4382 31.5328 47.4957 31.5272C47.6496 31.5154 47.8035 31.5036 47.9483 31.4943C48.3827 31.4662 48.8054 31.4315 49.2398 31.4034C49.2764 31.3936 49.318 31.4021 49.3571 31.4015C49.4053 31.3983 49.4628 31.3927 49.5135 31.3988C49.5825 31.3999 49.6607 31.3986 49.7322 31.4089C49.7322 31.4089 49.7414 31.4064 49.7506 31.404L49.7688 31.3991C49.778 31.3966 49.7872 31.3942 49.8055 31.3893C49.8696 31.3721 49.9387 31.3732 50.0077 31.3744C50.0767 31.3755 50.1366 31.3791 50.2032 31.371C50.3779 31.3635 50.5478 31.3376 50.7225 31.3301C50.7408 31.3251 50.7591 31.3203 50.7708 31.327C50.7982 31.3196 50.8165 31.3147 50.8465 31.3165C50.9521 31.3078 51.0621 31.2783 51.153 31.2147C51.153 31.2147 51.1531 31.2147 51.1622 31.2122C51.1622 31.2122 51.1714 31.2097 51.1806 31.2073C51.2704 31.2127 51.3546 31.1606 51.4462 31.1361C51.547 31.1091 51.6484 31.1212 51.7566 31.1216C51.7841 31.1143 51.8256 31.1228 51.8531 31.1154C51.8714 31.1105 51.8897 31.1056 51.908 31.1007C52.0778 31.0748 52.2312 31.0239 52.401 30.998C52.4101 30.9956 52.4284 30.9907 52.4376 30.9882C52.55 30.9679 52.6648 30.9568 52.7772 30.9365C53.826 30.783 54.8956 30.6338 55.9443 30.3331C56.2008 30.2644 56.4615 30.1748 56.7223 30.0853C56.7314 30.0828 56.7498 30.0779 56.759 30.0755C56.8206 30.0491 56.8798 30.0136 56.9415 29.9873C56.969 29.9799 56.994 29.9634 57.0123 29.9585C57.0307 29.9536 57.049 29.9487 57.0765 29.9413C57.1223 29.929 57.1681 29.9167 57.2139 29.9045C57.3147 29.8774 57.408 29.823 57.4972 29.7892C57.8239 29.6526 58.1566 29.4652 58.5023 29.3627C58.5756 29.3431 58.6489 29.3235 58.7222 29.3038C58.7771 29.2891 58.8346 29.2835 58.892 29.278C59.0826 29.2563 59.2781 29.253 59.4602 29.273C59.5408 29.2808 59.6148 29.3002 59.6979 29.3172C59.707 29.3148 59.7303 29.3282 59.7419 29.3349C59.7511 29.3324 59.7743 29.3459 59.7835 29.3434C59.8898 29.3738 59.9937 29.3951 60.0976 29.4163C60.1067 29.4139 60.1184 29.4206 60.13 29.4273C60.1483 29.4224 60.1715 29.4358 60.1831 29.4425C60.2571 29.4619 60.331 29.4814 60.3757 29.5382C60.3757 29.5382 60.3806 29.5565 60.3898 29.554C61.2459 29.7075 62.1843 29.6917 63.0841 29.5683L63.0933 29.5659L63.0834 29.5293Z" fill="#C3DC7D"/>
<path d="M44.1846 12.8739C44.4284 13.4173 44.6631 13.9632 44.907 14.5066C45.0314 14.7875 45.1558 15.0684 45.216 15.3664C45.2787 15.6737 45.2882 15.9657 45.2086 16.2914C45.1502 16.5133 45.1127 16.7394 45.0842 16.963C45.0576 17.1567 45.0077 17.3371 44.9811 17.5308C44.9242 17.978 44.849 18.4303 44.753 18.8782C44.6978 19.1483 44.6425 19.4184 44.5757 19.6818C44.5131 19.9244 44.4437 20.1787 44.4501 20.4225C44.4552 20.588 44.467 20.742 44.463 20.91C44.4609 21.1953 44.3831 21.4911 44.3419 21.7771C44.2734 22.2177 44.3613 22.6556 44.2953 23.1054C44.1131 24.4405 44.0781 25.7755 44.1989 27.0687C44.2503 27.6637 44.3434 28.2672 44.2109 28.8723C44.3379 28.7597 44.4715 28.6355 44.5984 28.5229C44.6885 28.2729 44.6406 28.0207 44.6018 27.7659C44.3733 26.3641 44.3464 24.9082 44.5242 23.4466C44.5811 22.9993 44.5347 22.5699 44.5525 22.1232C44.559 21.9644 44.5722 21.7939 44.5879 21.6326C44.6018 21.5012 44.6132 21.3607 44.6363 21.2268L44.8044 19.8758C44.8969 19.0851 45.0657 18.3231 45.248 17.5377C45.3379 17.1405 45.4346 16.7317 45.4347 16.329C45.4395 15.7975 45.4676 15.2794 45.3167 14.7896C45.1657 14.2998 44.9306 13.862 44.6771 13.4292C44.5492 13.2082 44.4004 12.9829 44.1797 12.8555L44.1846 12.8739Z" fill="#CEE186"/>
<path d="M51.3688 51.6198C50.9302 51.6686 50.5018 51.6459 50.0863 51.5609C49.9084 51.5202 49.7306 51.4795 49.5552 51.448C49.3707 51.4189 49.1684 51.4338 48.9906 51.3931C48.517 51.2745 48.0433 51.156 47.5697 51.0375C47.2531 50.9554 46.9098 50.9198 46.6108 50.7937C46.1707 50.6171 45.7373 50.4288 45.2887 50.2938C44.9256 50.1849 44.5382 50.1316 44.202 49.9762C43.4672 49.6527 42.7391 49.3176 42.0202 48.9801C42.1588 48.8742 42.3628 48.8294 42.4973 48.8915C43.2229 49.2175 43.9553 49.5318 44.6943 49.8345C45.0256 49.9715 45.3452 50.1019 45.6766 50.2389C45.7438 50.27 45.8227 50.3077 45.9033 50.3156C45.9724 50.3167 46.0414 50.3179 46.1129 50.3282C46.2492 50.3604 46.3745 50.425 46.5023 50.4987C46.7322 50.6237 46.9956 50.6906 47.2364 50.7831C47.3452 50.8227 47.4491 50.844 47.5713 50.8603C47.6935 50.8766 47.8249 50.8905 47.9295 50.9509C48.0689 51.0313 48.2326 51.0562 48.3897 51.0926C48.5791 51.14 48.7777 51.185 48.9672 51.2324C49.0528 51.2586 49.1359 51.2756 49.2214 51.3018C49.4848 51.3686 49.7751 51.389 50.0519 51.4327C50.2273 51.4642 50.4118 51.4933 50.5915 51.5041C50.8725 51.527 51.1646 51.5174 51.445 51.5012C51.7553 51.4867 52.1017 51.4234 52.4089 51.3607C53.0117 51.2286 53.6047 51.0598 54.2045 50.8794C53.9877 50.9866 53.7642 51.1054 53.5475 51.2126C53.4449 51.2695 53.3399 51.3173 53.2233 51.3584C53.0016 51.4473 52.7744 51.4787 52.5471 51.5102C52.1617 51.5742 51.7682 51.5716 51.3846 51.6057L51.3688 51.6198Z" fill="#C6D97D"/>
<path d="M44.3539 54.0609C44.2665 54.0647 44.1883 54.066 44.096 54.0515C43.9738 54.0351 43.854 54.028 43.7343 54.0208C43.5339 54.0058 43.3109 54.0164 43.1081 53.9922C42.9351 53.9698 42.7615 53.9084 42.5795 53.8884C42.3858 53.8618 42.1829 53.8376 41.98 53.8134C41.4869 53.7688 40.9712 53.7499 40.4661 53.8068C40.218 53.834 39.9473 53.7396 39.7096 53.6953C39.4602 53.6443 39.1767 53.6123 38.9383 53.5289C38.4463 53.4153 37.9702 53.2876 37.4892 53.1416C37.0082 52.9955 36.5364 52.847 36.0688 52.6778C35.6012 52.5085 35.1403 52.3277 34.6862 52.1352C34.232 51.9427 33.7845 51.7386 33.3413 51.5137C32.898 51.2888 32.4915 51.0541 32.0574 50.8268C32.0018 50.8024 31.9846 50.7383 31.9448 50.6999C31.9191 50.6773 31.8934 50.6547 31.8678 50.6321C31.8421 50.6096 31.8255 50.5845 31.784 50.576C31.7449 50.5767 31.7199 50.5932 31.6832 50.603C31.6466 50.6129 31.6166 50.6111 31.5775 50.6117C31.5043 50.6314 31.431 50.651 31.3485 50.6731C31.4622 50.731 31.5784 50.7981 31.6854 50.8676C31.7924 50.9371 31.8835 51.0207 31.9789 51.0835C32.1954 51.2317 32.4185 51.3683 32.6392 51.4957C32.7206 51.5426 32.8086 51.5779 32.8808 51.6273C32.9437 51.6792 33.0269 51.6962 33.1033 51.7248C33.2793 51.7954 33.4553 51.8661 33.6155 51.9508C33.8313 52.0599 34.0453 52.1989 34.2837 52.2823C34.4274 52.342 34.5777 52.3901 34.7281 52.4382C34.8809 52.4954 35.0404 52.541 35.1932 52.5983C35.7855 52.793 36.3717 53.0385 36.9798 53.2192C37.4932 53.3762 38.0505 53.4036 38.5639 53.5605C38.8737 53.6542 39.2196 53.699 39.5252 53.8135C39.766 53.906 40.0002 54.0102 40.2714 53.9964C40.9404 53.9644 41.6386 53.8951 42.2888 53.9762C42.4916 54.0003 42.6945 54.0245 42.8949 54.0395C42.9963 54.0516 43.0953 54.0546 43.1967 54.0667C43.2774 54.0745 43.333 54.0989 43.4045 54.1092C43.7852 54.1741 44.1836 54.1949 44.5771 54.1975C44.6461 54.1986 44.7243 54.1973 44.7933 54.1984C44.844 54.2045 44.8856 54.213 44.9388 54.2282C45.0726 54.2512 45.2131 54.2627 45.3512 54.265C45.6298 54.2787 45.9035 54.274 46.184 54.2578C46.3196 54.2509 46.4485 54.2556 46.5816 54.2396C46.7447 54.2253 46.9079 54.211 47.0777 54.1852C47.2475 54.1593 47.4039 54.1567 47.5737 54.1308C47.7276 54.119 47.9017 54.0723 48.0514 54.0813C48.2511 54.0572 48.4625 54.0398 48.6683 53.965C48.8808 53.8786 49.0786 53.7372 49.2507 53.5733C49.4228 53.4093 49.5692 53.2228 49.7247 53.0338C49.4599 53.2914 49.1859 53.5514 48.8617 53.6972C48.7133 53.7664 48.5643 53.7965 48.4061 53.8291C47.5901 54.0086 46.7854 54.0475 45.9809 54.0864C45.7487 54.0995 45.5141 54.1034 45.2728 54.119C45.1671 54.1277 45.0456 54.1505 44.9509 54.1268C44.8769 54.1073 44.8096 54.0762 44.729 54.0684C44.6275 54.0563 44.5261 54.0442 44.418 54.0437C44.3997 54.0486 44.3905 54.0511 44.3697 54.0468L44.3539 54.0609Z" fill="#D9E68F"/>
</g>
<use xlink:href="#pattern0_564_61641_inner" transform="translate(258.601 110.544)"/>
</pattern></defs>
</svg>
