<svg width="35" height="51" viewBox="0 0 35 51" fill="none" xmlns="http://www.w3.org/2000/svg">
<path d="M10.1217 21.0843L10.1897 14.2484L24.0617 14.0757L24.4627 21.8485C40.4387 31.3302 32.5269 44.5621 26.574 49.9928L13.0146 50.7901C-8.80558 39.0129 1.99426 26.0791 10.1217 21.0843Z" fill="#D9ECE3" stroke="#D0DDCF" stroke-width="0.298588"/>
<path d="M12.5374 48.9276C1.66247 44.3585 1.0257 34.989 2.06668 30.8754C2.06668 30.8754 29.6387 26.1987 32.0647 31.1739C34.4908 36.1492 27.3171 45.9962 25.1366 49.053L12.5374 48.9276Z" fill="url(#paint0_radial_723_68111)"/>
<ellipse cx="17.0583" cy="31.027" rx="15.0075" ry="2.47547" transform="rotate(0.570215 17.0583 31.027)" fill="url(#paint1_linear_723_68111)"/>
<path opacity="0.87" d="M17.4351 8.75029C22.2199 8.79791 26.0912 9.5987 26.0818 10.5386C26.0812 10.5908 26.0672 10.6417 26.0432 10.6925L26.0803 10.6929L26.0495 13.7874L26.0124 13.7871C26.0353 13.8384 26.0485 13.8895 26.0479 13.9417C26.0386 14.8816 22.1522 15.6052 17.3674 15.5576C12.5825 15.5099 8.71132 14.7092 8.72067 13.7693C8.7212 13.717 8.73532 13.6662 8.75932 13.6154L8.72221 13.615L8.75301 10.5204L8.79012 10.5208C8.76712 10.4695 8.75407 10.4184 8.75454 10.3661C8.7639 9.42625 12.6503 8.70267 17.4351 8.75029Z" fill="#D1DED8"/>
<path d="M11.0326 12.4842L9.76617 1.83568C16.6547 -0.840514 22.8138 0.821892 25.0324 1.98762L23.5543 12.6088C18.8613 15.3069 13.2511 13.6499 11.0326 12.4842Z" fill="#CC862E"/>
<path d="M11.0326 12.4842L9.76617 1.83568C16.6547 -0.840514 22.8138 0.821892 25.0324 1.98762L23.5543 12.6088C18.8613 15.3069 13.2511 13.6499 11.0326 12.4842Z" fill="black" fill-opacity="0.2"/>
<path d="M11.0326 12.4842L9.76617 1.83568C16.6547 -0.840514 22.8138 0.821892 25.0324 1.98762L23.5543 12.6088C18.8613 15.3069 13.2511 13.6499 11.0326 12.4842Z" stroke="#D0DDCF" stroke-width="0.298588"/>
<path d="M11.0326 12.4842L9.76617 1.83568C16.6547 -0.840514 22.8138 0.821892 25.0324 1.98762L23.5543 12.6088C18.8613 15.3069 13.2511 13.6499 11.0326 12.4842Z" stroke="black" stroke-opacity="0.2" stroke-width="0.298588"/>
<ellipse cx="17.4544" cy="1.80043" rx="7.37617" ry="1.71539" transform="rotate(0.570215 17.4544 1.80043)" fill="#DEA051"/>
<defs>
<radialGradient id="paint0_radial_723_68111" cx="0" cy="0" r="1" gradientUnits="userSpaceOnUse" gradientTransform="translate(16.8139 39.996) rotate(90.5702) scale(8.97356 15.1622)">
<stop stop-color="#409C07"/>
<stop offset="1" stop-color="#163602"/>
</radialGradient>
<linearGradient id="paint1_linear_723_68111" x1="2.05079" y1="31.027" x2="32.0658" y2="31.027" gradientUnits="userSpaceOnUse">
<stop stop-color="#43A307"/>
<stop offset="1" stop-color="#193D03"/>
</linearGradient>
</defs>
</svg>
