<svg width="99" height="74" viewBox="0 0 99 74" fill="none" xmlns="http://www.w3.org/2000/svg">
<path d="M0.39551 41.0523C0.35453 48.572 1.97323 56.5424 7.1981 61.9517C13.0377 67.9757 21.9916 69.4919 30.3105 70.6803C41.1495 72.2375 52.05 73.8153 62.971 73.262C72.2858 72.7902 81.7198 70.6936 89.7855 66.095C92.4893 64.5535 94.2717 61.8468 95.039 58.8305C97.1179 50.6587 98.8787 42.3613 98.5 33.9628C98.0493 23.9638 94.1358 13.637 86.0014 7.81796C79.5471 1.36371 67.0484 2.10137 58.8115 1.11786C48.3618 -0.152499 37.5843 0.564626 26.9911 0.687565C23.4054 0.728544 19.7173 0.810494 16.4185 2.1833C11.1321 4.41668 6.03017 14.3952 3.91974 19.6815C1.25608 26.3611 0.415979 33.8809 0.375 41.0318L0.39551 41.0523Z" fill="white" stroke="#BCBCBC" stroke-width="0.74944" stroke-miterlimit="1.62427"/>
</svg>
