<svg width="381" height="71" viewBox="0 0 381 71" fill="none" xmlns="http://www.w3.org/2000/svg">
<circle cx="335.752" cy="32.8179" r="32.8188" transform="rotate(-90 335.752 32.8179)" fill="#FCFDFA"/>
<circle cx="343.545" cy="43.01" r="5.34028" transform="rotate(-90 343.545 43.01)" fill="white" stroke="black" stroke-width="0.408909"/>
<circle cx="342.724" cy="42.188" r="3.90185" transform="rotate(-90 342.724 42.188)" fill="black"/>
<ellipse cx="340.098" cy="41.2127" rx="1.049" ry="0.899146" transform="rotate(-90 340.098 41.2127)" fill="white"/>
<circle cx="343.545" cy="19.0295" r="5.34028" transform="rotate(-90 343.545 19.0295)" fill="white" stroke="black" stroke-width="0.408909"/>
<circle cx="342.724" cy="18.2075" r="3.90185" transform="rotate(-90 342.724 18.2075)" fill="black"/>
<ellipse cx="340.098" cy="17.1658" rx="1.049" ry="0.899146" transform="rotate(-90 340.098 17.1658)" fill="white"/>
<path d="M356.582 41.9609C366.622 34.9176 364.375 27.4248 356.582 22.1797" stroke="black" stroke-width="0.895179"/>
<path d="M228.414 36.0173C228.383 41.6906 229.604 47.7039 233.546 51.785C237.952 56.3298 244.707 57.4738 250.983 58.3704C259.161 59.5452 267.385 60.7355 275.624 60.3182C282.652 59.9622 289.769 58.3804 295.855 54.911C297.895 53.748 299.239 51.7059 299.818 49.4302C301.387 43.2649 302.715 37.0049 302.429 30.6686C302.089 23.1248 299.137 15.3337 293 10.9435C288.13 6.07407 278.701 6.63059 272.486 5.88858C264.602 4.93015 256.471 5.47119 248.479 5.56394C245.774 5.59486 242.991 5.65669 240.503 6.69241C236.514 8.37739 232.665 15.9057 231.073 19.894C229.063 24.9335 228.429 30.6068 228.398 36.0018L228.414 36.0173Z" fill="white" stroke="#BCBCBC" stroke-width="0.565419" stroke-miterlimit="1.62427"/>
<path d="M154.346 36.0173C154.315 41.6906 155.536 47.7039 159.478 51.785C163.883 56.3298 170.639 57.4738 176.915 58.3704C185.093 59.5452 193.317 60.7355 201.556 60.3182C208.584 59.9622 215.701 58.3804 221.786 54.911C223.826 53.748 225.171 51.7059 225.75 49.4302C227.318 43.2649 228.647 37.0049 228.361 30.6686C228.021 23.1248 225.068 15.3337 218.931 10.9435C214.062 6.07407 204.632 6.63059 198.418 5.88858C190.534 4.93015 182.403 5.47119 174.411 5.56394C171.706 5.59486 168.923 5.65669 166.434 6.69241C162.446 8.37739 158.597 15.9057 157.004 19.894C154.995 24.9335 154.361 30.6068 154.33 36.0018L154.346 36.0173Z" fill="white" stroke="#BCBCBC" stroke-width="0.565419" stroke-miterlimit="1.62427"/>
<path d="M80.2752 36.0173C80.2443 41.6906 81.4656 47.7039 85.4075 51.785C89.8132 56.3298 96.5686 57.4738 102.845 58.3704C111.022 59.5452 119.246 60.7355 127.486 60.3182C134.513 59.9622 141.631 58.3804 147.716 54.911C149.756 53.748 151.101 51.7059 151.68 49.4302C153.248 43.2649 154.576 37.0049 154.291 30.6686C153.951 23.1248 150.998 15.3337 144.861 10.9435C139.992 6.07407 130.562 6.63059 124.348 5.88858C116.464 4.93015 108.333 5.47119 100.34 5.56394C97.6352 5.59486 94.8527 5.65669 92.3638 6.69241C88.3755 8.37739 84.5263 15.9057 82.9341 19.894C80.9245 24.9335 80.2907 30.6068 80.2598 36.0018L80.2752 36.0173Z" fill="white" stroke="#BCBCBC" stroke-width="0.565419" stroke-miterlimit="1.62427"/>
<path d="M6.20493 36.0173C6.17401 41.6906 7.39525 47.7039 11.3372 51.785C15.7429 56.3298 22.4982 57.4738 28.7744 58.3704C36.952 59.5452 45.1759 60.7355 53.4154 60.3182C60.4429 59.9622 67.5605 58.3804 73.6457 54.911C75.6856 53.748 77.0303 51.7059 77.6092 49.4302C79.1777 43.2649 80.5061 37.0049 80.2204 30.6686C79.8803 23.1248 76.9278 15.3337 70.7907 10.9435C65.9213 6.07407 56.4916 6.63059 50.2772 5.88858C42.3934 4.93015 34.2622 5.47119 26.2701 5.56394C23.5649 5.59486 20.7824 5.65669 18.2935 6.69241C14.3052 8.37739 10.456 15.9057 8.8638 19.894C6.85419 24.9335 6.22037 30.6068 6.18945 36.0018L6.20493 36.0173Z" fill="white" stroke="#BCBCBC" stroke-width="0.565419" stroke-miterlimit="1.62427"/>
</svg>
