<svg width="100" height="75" viewBox="0 0 100 75" fill="none" xmlns="http://www.w3.org/2000/svg">
<path d="M0.77051 41.4273C0.72953 48.947 2.34823 56.9174 7.5731 62.3267C13.4127 68.3507 22.3666 69.8669 30.6855 71.0553C41.5245 72.6125 52.425 74.1903 63.346 73.637C72.6608 73.1652 82.0948 71.0686 90.1605 66.47C92.8643 64.9285 94.6467 62.2218 95.414 59.2055C97.4929 51.0337 99.2537 42.7363 98.875 34.3378C98.4243 24.3388 94.5108 14.012 86.3764 8.19296C79.9221 1.73871 67.4234 2.47637 59.1865 1.49286C48.7368 0.222501 37.9593 0.939626 27.3661 1.06256C23.7804 1.10354 20.0923 1.18549 16.7935 2.5583C11.5071 4.79168 6.40517 14.7702 4.29474 20.0565C1.63108 26.7361 0.790979 34.2559 0.75 41.4068L0.77051 41.4273Z" fill="white" fill-opacity="0.3" stroke="black" stroke-width="1.49888" stroke-miterlimit="1.62427" stroke-linecap="round" stroke-linejoin="round" stroke-dasharray="7.49 7.49"/>
</svg>
