<svg width="11" height="11" viewBox="0 0 11 11" fill="none" xmlns="http://www.w3.org/2000/svg">
<path d="M4.29632 2.93832C3.89757 2.95368 3.53709 3.09599 3.34436 3.28895C3.32307 3.31023 3.29779 3.3271 3.26998 3.33861C3.24217 3.35012 3.21236 3.35604 3.18226 3.35603C3.15216 3.35602 3.12235 3.35008 3.09455 3.33855C3.06674 3.32702 3.04148 3.31013 3.0202 3.28883C2.99893 3.26754 2.98205 3.24227 2.97054 3.21445C2.95903 3.18664 2.95311 3.15683 2.95313 3.12673C2.95314 3.09663 2.95907 3.06683 2.9706 3.03902C2.98213 3.01122 2.99903 2.98596 3.02032 2.96468C3.31755 2.66745 3.80155 2.49878 4.27844 2.48022C4.75855 2.46166 5.28265 2.59297 5.64978 2.96009C5.69275 3.0031 5.71687 3.06141 5.71685 3.1222C5.71683 3.18299 5.69266 3.24128 5.64966 3.28425C5.60666 3.32722 5.54835 3.35135 5.48756 3.35133C5.42677 3.35131 5.36848 3.32714 5.3255 3.28414C5.07571 3.03412 4.69209 2.92274 4.29632 2.93809" fill="black"/>
<path fill-rule="evenodd" clip-rule="evenodd" d="M6.63117 6.2755C7.08553 5.73851 7.33438 5.05759 7.33333 4.35417C7.33333 2.70875 5.99958 1.375 4.35417 1.375C2.70875 1.375 1.375 2.70875 1.375 4.35417C1.375 5.99958 2.70875 7.33333 4.35417 7.33333C5.08635 7.33333 5.75667 7.06933 6.2755 6.63117L6.1875 7.13717L7.90946 8.85913L8.85913 7.90946L7.13717 6.1875L6.63117 6.2755ZM4.35417 6.64583C5.61985 6.64583 6.64583 5.61985 6.64583 4.35417C6.64583 3.08848 5.61985 2.0625 4.35417 2.0625C3.08848 2.0625 2.0625 3.08848 2.0625 4.35417C2.0625 5.61985 3.08848 6.64583 4.35417 6.64583Z" fill="black"/>
<path d="M8.23438 9.18404L9.18404 8.23438L9.49479 8.54512C9.66965 8.71998 9.66965 9.00346 9.49479 9.17808L9.17808 9.49479C9.00323 9.66965 8.71975 9.66965 8.54512 9.49479L8.23438 9.18404Z" fill="black"/>
</svg>
